<?xml version="1.0" encoding="utf-8"?>
<!-- Generator: Adobe Illustrator 23.0.1, SVG Export Plug-In . SVG Version: 6.00 Build 0)  -->
<svg version="1.1" id="Layer_1" xmlns="http://www.w3.org/2000/svg" xmlns:xlink="http://www.w3.org/1999/xlink" x="0px" y="0px"
	 viewBox="0 0 200 200" style="enable-background:new 0 0 200 200;" xml:space="preserve">
<style type="text/css">
	.st0{fill:#20A820;}
</style>
<g>
	<path class="st0" d="M122.8,107c3.8-1.9,5.8-6.1,7.2-10.2c6.9-21.2,3.3-45.1,12.6-65.3c1-2.2,2.1-4.3,2.4-6.7
		c0.6-4.6-4.5-10.1-7.8-12.7c-1.7-1.4-3.5-2.7-5.2-4.1c-0.3-0.2-0.6-0.5-1-0.6c-1.6-0.5-5.4,1.6-6.8,2.2l-6.9,3.3l-11.9,3.3
		l-11.3,2.8l-14.9,2.2l-13.5,0.6c0,0-8.2-2.2-8.3-2.2c-1.7-0.5-5-2.7-6.9-1.6c-2.7,1.6-1.2,7.3,0.6,9c0,0,2.5,3.9,4.1,14.3l1.4,10.2
		l1.9,13L60.2,79l1.1,10.8l1.9,9.4l1.4,8c0,0,2.5,2.5,5,0l-0.3-6.9l-0.8-15.2l-1.7-20.1c-0.6-11.7-1.5-22.9-3.6-34.5
		c0.7,4,30.1-3.6,33.8-4.6l10.2-2.5c0,0,9.8-2.6,9.8-2.6c3.8-0.7,10.2-0.8,12,3.3c1.1,2.4,0.9,5.1,0.6,7.7
		c-2.4,25.1-4.8,50.2-7.2,75.3C122.6,107.1,122.7,107.1,122.8,107z"/>
	<path class="st0" d="M91.2,194.5v-63.7V62.2c-0.2-0.4-4.5-0.3-5-0.2c-1.9,0.2-3.7,0.9-5.2,2.1c-0.3,0.2-0.5,0.4-0.8,0.4
		c-0.2,0-0.4-0.1-0.7-0.2c-3.2-1.4-5-4-6.9-6.7c-0.3-0.3,0-2,0-2.5c0.9-0.3,1.6-0.9,2.4-1.4c2.2-1.2,5-0.7,7.3-0.7
		c1.4,0,2.9,0,4.3,0c1.1,0,3.6,0.3,4.6-0.2c0.9-0.5,0.6-2.8,0.6-3.9V38.6L91.4,32c0,0-2.4,0-2.7-1.3s-0.4-3.4,0.8-5c0,0,6,0,6.6,0
		c0,0,2.2,1.2,2.9,2.8c0.7,1.6-0.1,8.3-0.1,8.3l-0.2,5.3l-0.1,4.7c0,0,0.2,3.7,0.2,3.7c4.3,2.5,4.9-3.4,7.3-4.5
		c0.4-0.2,0.9-0.3,1.3-0.3c2-0.3,4-0.7,5.9,0c3.2,1.1,4.8,4.9,4.2,8.2c-0.2,1.4-0.8,2.7-1.9,3.6c-2.9,2.4-5.4,0.1-8.3,0.2
		c-0.7,0-1.5,0.3-2.2,0.4c-1.2,0.2-2.6,0.3-3.7,0.7l-3.3,1.2l0.8,62l-1.7,43.4l-0.8,17l0.5,12L91.2,194.5L91.2,194.5z"/>
	<polygon class="st0" points="68.9,91.3 93.6,87.5 108.8,85.5 125.3,83.8 125.3,91.3 101,93.2 85.8,96.2 68.9,99.1 	"/>
</g>
</svg>
