<?xml version="1.0" encoding="utf-8"?>
<!-- Generator: Adobe Illustrator 23.0.1, SVG Export Plug-In . SVG Version: 6.00 Build 0)  -->
<svg version="1.1" id="Layer_1" xmlns="http://www.w3.org/2000/svg" xmlns:xlink="http://www.w3.org/1999/xlink" x="0px" y="0px"
	 viewBox="0 0 200 200" style="enable-background:new 0 0 200 200;" xml:space="preserve">
<style type="text/css">
	.st0{fill:#49B5DB;}
</style>
<path class="st0" d="M40,57c0,0,58.7-6.3,84.4-34.1c0,0,12.1,2.6,20.4,13.6c0,0-32,15.2-46.6,15.2c0,0-2.1,2.3,7.9,5.9l-2.6,40.2
	c0,0,28.8-3.1,36.7-5.8s24.1-0.5,30.9,11c0,0-61.3-1.1-65.5,4.7c0,0-2.1,3.7-2.6,10l0.5,42.4c0,0,14.2,1.1,46.6-4.7
	c0,0,30.4-7.3,36.7,11c0,0,4.2,1.1-4.7,3.1h-80.2c0,0-65.5,7.9-73.9,10.5c0,0-29.9-13.6-11-16.8h72.3c0,0,5.2-6.3,1.6-56.6
	c0,0-34.6,3.7-44,7.9c0,0-19.4,1.1-17.3-13.1h58.7h3.1V64.3l-4.2-10.5c0,0-40.3,4.7-43.5,5.8C43.6,59.6,37.3,60.7,40,57z"/>
</svg>
