<?xml version="1.0" encoding="utf-8"?>
<!-- Generator: Adobe Illustrator 23.0.1, SVG Export Plug-In . SVG Version: 6.00 Build 0)  -->
<svg version="1.1" id="Layer_1" xmlns="http://www.w3.org/2000/svg" xmlns:xlink="http://www.w3.org/1999/xlink" x="0px" y="0px"
	 viewBox="0 0 200 200" style="enable-background:new 0 0 200 200;" xml:space="preserve">
<style type="text/css">
	.st0{fill:#686868;}
</style>
<g>
	<path class="st0" d="M12.6,170.6c5.3,0,14-8.6,17.4-11.8c5.6-5.1,10.6-11,14.7-17.4c4.2-6.5,9-13.6,9.8-21.6c0.6-6.2,0-12.9,0-19.2
		c0,0-6.8-1.3-3.9-4.2c0,0,23.5,1.3,45.2,0c0,0,31.6-3.2,40.6-7.1c0,0,14.5-2.3,19,4.5c0,0-5.5,3.6-50.3,4.8L69,100.6
		c0.6,0-2.2,15.7-2.4,16.5c-6.6,24.3-24.2,42.3-46,53.5C20.6,170.6,12.6,170.6,12.6,170.6z"/>
	<path class="st0" d="M90.9,77.7h19.7c0,0,7.4,2.9,9,7.1c0,0,4.8,8.4-14.3,1.3C105.3,86,91.6,79.9,90.9,77.7z"/>
	<path class="st0" d="M77.7,35.4c0,0,10.3-1,16.1,0c0,0,11,6.1,9,13.9c0,0-1.7,9.3-12.5,0l-12.7-11V35.4z"/>
	<path class="st0" d="M46.1,69l2.9,1.9c0,0,8.7,0.3,17.4-1l36.7-4.5l28.8-5.5c0,0,2.1-7.1-11.7-10c0,0-4.7-0.6-25.4,10.5
		c0,0-20,4.3-24.2,4.3c0,0-12.9,1.3-24.5-4.3C46.1,60.4,43.2,67,46.1,69z"/>
	<path class="st0" d="M108.4,140.9l22.9-1.6c16.8,1.6,14.8-2.6,14.8-2.6c-1.3,1.3-5.8-1.3-5.8-1.3c-1.9-8.7,3.2-11.3,3.2-11.3
		c31.3,0.3,35.8-2.9,35.8-2.9c-6.1-6.1-14.8-4.8-14.8-4.8c-19.4,7.1-20.3,2.6-20.3,2.6c5.8-5.5,6.4-7.7,6.4-7.7
		c-3.9-4.8-12.9-4.5-12.9-4.5c-9.7,3.9-27.4,3.9-27.4,3.9c1.9-4.5,0-7.7,0-7.7c-14.5-3.6-16.1,0-16.1,0c7.1,7.4,4.8,10,4.8,10H78
		c-10.6,1.3,3.6,6.1,3.6,6.1c16.4-2.7,18.7-2.3,18.7-2.3c0.3,6.4-2.9,8.4-2.9,8.4c-34.5-0.3-34.4,2.3-34.4,2.3
		c-1.7,4.2,11.2,4.4,11.2,4.4c5.2-1.6,24.2-2.1,24.2-2.1c1.9,5-2.3,8.6-2.3,8.6c-29-1-29.3,1.6-29.3,1.6c-0.7,4.8,10,4.8,10,4.8
		c13.6-3.9,19.3-1.6,19.3-1.6c-16.4,26.4-50,23.6-50,23.6c3.9,5.2,28.7,0.6,28.7,0.6c24.5-6.4,32.3-21.6,32.3-21.6
		c20,17.4,44.5,24.8,44.5,24.8h33.9l1.6-2.3C130.3,159.9,108.4,140.9,108.4,140.9z M110.6,116l21.4-2.6c0,0,4.7,2.1,1.8,6.9
		l-23.2,2.8C110.6,123.1,107.7,121.6,110.6,116z M110.6,127.5l21.4-0.8c0,0,2.7,3.4-0.2,8.3l-21.2,1.4
		C110.6,136.4,107.7,133,110.6,127.5z"/>
</g>
</svg>
