<?xml version="1.0" encoding="utf-8"?>
<!-- Generator: Adobe Illustrator 23.0.1, SVG Export Plug-In . SVG Version: 6.00 Build 0)  -->
<svg version="1.1" id="Layer_1" xmlns="http://www.w3.org/2000/svg" xmlns:xlink="http://www.w3.org/1999/xlink" x="0px" y="0px"
	 viewBox="0 0 200 200" style="enable-background:new 0 0 200 200;" xml:space="preserve">
<style type="text/css">
	.st0{fill:#FF4200;}
</style>
<g>
	<path class="st0" d="M46.5,170.2V86.8c0,0,60.1-1.4,107.5-10.5c0,0,4.6,1.4,3.2,13.7l0.3,59.2c0,0-6.6,12.3-34.9-2.7
		c0,0-1.4,1.7,1.9,4.8c6.1,5.6,18.9,15.8,20.4,28.5c0,0,26-12.8,24.6-29.6c0,0-3.2-59.7,4.6-70.1c0,0,4.1-20.5-29.6-16.4
		c0,0-25.1,16.8-109.3,11.8c-2.9-0.2-5.2,1.9-6,4.6c-1.1,3.9,1.9,8.2,3.5,11.4c5.5,11.1,2.3,28,2.5,40.2c0.2,12.4,0.1,25.3,2.3,37.6
		C39.2,179.8,46.5,170.2,46.5,170.2z"/>
	<path class="st0" d="M32.8,33.8c0,0,42.4,8.2,101.6-14.1c0,0,25.1,0.7,21.4,15.6c0,0-41.4,0.8-65.1,3.5c0,0-39.2,8.6-43.3,9.6
		C47.4,48.3,30.6,45.2,32.8,33.8z"/>
	<path class="st0" d="M54.3,136.9c0,0,27.8-18.7,34.2-50.1c0,0,4.6-19.6,2.3-51.9c0,0,13.2,1.4,15.5,6.8c0,0,5.5,77-46,95.2H54.3z"
		/>
	<path class="st0" d="M129.6,131.9c0,0,7.7-5,0-19.1c0,0-22-10.5-31.9-12.8c0,0-9.2-2.3,4.8,9.6
		C102.5,109.6,123.3,128.3,129.6,131.9z"/>
</g>
</svg>
