<?xml version="1.0" encoding="utf-8"?>
<!-- Generator: Adobe Illustrator 23.0.1, SVG Export Plug-In . SVG Version: 6.00 Build 0)  -->
<svg version="1.1" id="Layer_1" xmlns="http://www.w3.org/2000/svg" xmlns:xlink="http://www.w3.org/1999/xlink" x="0px" y="0px"
	 viewBox="0 0 200 200" style="enable-background:new 0 0 200 200;" xml:space="preserve">
<style type="text/css">
	.st0{fill:#9E4818;}
</style>
<g>
	<path class="st0" d="M34.8,175.2c0,0,27.1-28,26.2-60c0,0,2.7-35.6-5.3-40.4c0,0,0.4-6.7,11.6-2.7c0,0,12,3.2,21.8-1.3
		c0,0-6.7-43.6-11.6-52.5c0,0-5.8-15.1,16,0c0,0,0,43.5,6.2,49.8l11.6-5.8c0,0,6.2-7.1,14.7-3.5c0,0,7.1,6.2,0,10.2
		c0,0-20,7.1-25.3,7.6c0,0,6.2,32.4,13.8,45.3c0,0,11.1-12.9,9.8-36.9c0,0,9.8,4,11.6,10.7c0,0-8.4,23.6-17.3,35.6
		c0,0,12.4,29.8,31.6,39.1c0,0,6.6-21.8,8.4-31.2c0.3-1.5,0.5-2.7,0.5-3.5c0,0,3.6,45.3,4,50.7c0,0-5.6,4.7-13.3,0
		c0,0-20.1-12.7-37.6-45.9c0,0-8.3,13-29.3,26.4c0,0-8.6,2.4-7.4-3.3c0,0,26.6-19.4,32.3-31.7c0,0-15.4-42.7-16-54.2
		c0,0-11,6.1-21.9,3.6c0,0,3,40.9-1.8,54.8c0,0-6.2,24.3-22.2,36.7c0,0-7.1,4.1-8,4.1C37.4,176.8,34.5,178.6,34.8,175.2z"/>
	<path class="st0" d="M115.6,26.4c0,0,10.2,18.2,20,20c0,0,11.6-3.5,2.2-15.5C137.9,30.8,133.5,28.5,115.6,26.4z"/>
</g>
</svg>
