<?xml version="1.0" encoding="utf-8"?>
<!-- Generator: Adobe Illustrator 23.0.1, SVG Export Plug-In . SVG Version: 6.00 Build 0)  -->
<svg version="1.1" id="Layer_1" xmlns="http://www.w3.org/2000/svg" xmlns:xlink="http://www.w3.org/1999/xlink" x="0px" y="0px"
	 viewBox="0 0 200 200" style="enable-background:new 0 0 200 200;" xml:space="preserve">
<style type="text/css">
	.st0{fill:#FF4200;}
</style>
<path class="st0" d="M9.5,28.7c0,0,75.5,4.2,146.8-16.1c0,0,35.6-2.8,34.9,16.4c0,0-22.4,2.4-82.5,5.9c0,0,7,6.6,5.2,28.7
	c0.2,14.4,0.4,28.9,0.6,43.3c0.2,11.3,0.3,22.7,0.4,34c0.1,8.6,2.3,20.8-0.1,28.9c-0.6,1.9-1.7,3.7-2.7,5.3
	c-2.5,3.8-9.9,15.4-14.2,13.4c-2.6-1.2-6.1-8.2-7.9-10.5c-4.2-5.1-8.6-10.1-13.4-14.7c-1.7-1.6-8.6-4.7-11.8-7.3
	c-2.6-2.1-1.3-3.9-3.4-3.9c0,0,20.6,5.2,35.3,3.8c0,0,6.3-5.6,5.2-12.2l-1.7-87c0,0-3.8-19.9-14.7-20.3c0,0-54.2,5.6-63.6,11.9
	C22.1,48.6,5,40.9,9.5,28.7z"/>
</svg>
