<?xml version="1.0" encoding="utf-8"?>
<!-- Generator: Adobe Illustrator 23.0.1, SVG Export Plug-In . SVG Version: 6.00 Build 0)  -->
<svg version="1.1" id="Layer_1" xmlns="http://www.w3.org/2000/svg" xmlns:xlink="http://www.w3.org/1999/xlink" x="0px" y="0px"
	 viewBox="0 0 200 200" style="enable-background:new 0 0 200 200;" xml:space="preserve">
<style type="text/css">
	.st0{fill:#686868;}
</style>
<g>
	<path class="st0" d="M43,117.6c0,0,19.1,1.4,50.5-3.6c0,0,4-6.1,0-19.1l-62.8,7.9c0,0-13-4-11.5-7.9c0,0-2.5-4.7,56.3-4.7l19.8-1.8
		h5.4c0,0,17.7-19.1,14.8-32.8c0,0,10.1-0.4,18.4,6.9c0,0-14.4,15.9-23.8,22.7c0,0,8.7,1.4,41.9-5.8c0,0,22.4-6.7,32.1,7.3
		c0,0,5.8,3.2-13.4,3.2L106.2,92l-1.8,2.2v2.5l3.3,1.4l-0.7,11.9l1.4,2.5c0,0,22-2.2,26.7-5.4c0,0,13.7-7.6,23.8,6.5l-2.2,2.5
		l-48.4,1.6c0,0-2.5,2.7-1.4,10.3l-0.4,29.6c0,0-1.1,14.1-4.5,18.1c0,0-6.7,0.7-7.8-10.8l0.7-45.1l-33.6,5.4
		C61.5,125.2,49.2,128.1,43,117.6z"/>
	<path class="st0" d="M49.9,51.9c0,0,63.5-0.7,79.4-10.8c0,0,16.2-2.5,21.3,7.9c0,0-0.7,1.1-5.8,1.4c-5.1,0.4-72.2,5.8-81.9,11.2
		C62.9,61.7,49.9,57,49.9,51.9z"/>
	<path class="st0" d="M79.9,26.7c0,0,10.8,0.7,13,0c2.2-0.7,17.7,5.4,15.5,12.3c0,0-0.9,8.3-14.2,4.3C94.2,43.3,81.7,32.1,79.9,26.7
		z"/>
	<path class="st0" d="M73.4,64.6h9.4c0,0,12.5,5.1,11.5,13.3c0,0-2.1,7.6-8.2,4.7C86,82.6,76.6,77.9,73.4,64.6z"/>
</g>
</svg>
