<?xml version="1.0" encoding="utf-8"?>
<!-- Generator: Adobe Illustrator 23.0.1, SVG Export Plug-In . SVG Version: 6.00 Build 0)  -->
<svg version="1.1" id="Layer_1" xmlns="http://www.w3.org/2000/svg" xmlns:xlink="http://www.w3.org/1999/xlink" x="0px" y="0px"
	 viewBox="0 0 200 200" style="enable-background:new 0 0 200 200;" xml:space="preserve">
<style type="text/css">
	.st0{fill:#9E4818;}
</style>
<path class="st0" d="M18.6,41.1c0,0,31.2,7,79.7-18.2L121.1,42c0,0-58.7,26.1-78.8,91.8c0,0-8.8,34.5,49.9,32.6
	c9.1-0.3,18.3-1.4,27.3-2.8c12.1-1.8,25.5-5.2,34.1-14.7c10.2-11.3,13.4-30.3,15-44.9c0,0,4.1,3.4,4.5,8.6c1,14-0.2,40.7,6.3,46.9
	c0,0-27,21.9-80.4,21c-13.8-0.2-29.1-2.6-42.9-5.3c-12-2.4-23-7.7-27-20.2c-5.5-17.6,4-37.5,11.4-53c0,0,20-34.7,55.4-61.3
	c0,0-56.4,16.8-60.1,17.2C35.9,57.9,18.2,50.9,18.6,41.1z"/>
</svg>
