<?xml version="1.0" encoding="utf-8"?>
<!-- Generator: Adobe Illustrator 23.0.1, SVG Export Plug-In . SVG Version: 6.00 Build 0)  -->
<svg version="1.1" id="Layer_1" xmlns="http://www.w3.org/2000/svg" xmlns:xlink="http://www.w3.org/1999/xlink" x="0px" y="0px"
	 viewBox="0 0 200 200" style="enable-background:new 0 0 200 200;" xml:space="preserve">
<style type="text/css">
	.st0{fill:#9E4818;}
</style>
<path class="st0" d="M37.5,75.8c0,0,1.7,63.3,1.7,63.4c0.2,8.6,7.1,18.9,12.7,24.8c13.7,14.1,35.1,14.4,53.3,13.2
	c22.1-1.4,42.7-6.9,60.6-20.5c0.8-0.6,1.6-1.3,2-2.2c0.9-2.2-3.5-8.4-4.4-10.6c-1.7-4.2-3.1-8.5-4.1-12.8
	c-2.2-9.1-2.9-18.4-2.2-27.7c0,0-3.8-4.4-4.4-1.4c-3.3,15.1,2.6,35.2-6.9,48.2c-6.9,9.4-19.3,10.6-30.1,12.2
	c-13.8,2-30.6,3.6-43.5-3.1c-5.6-2.9-11.2-5.4-15.8-9.9c-8.6-8.5-6.3-22.7-6.3-33.7c0-8.1,0-16.2,0-24.3c0,0,48.4-3.1,59.3-10.9
	c0,0,2.4-2.7-6.5-8.9c0,0-5.1-11.9,21.1-32.4c2.2-1.7-0.7-7.1-1.7-8.4c-4.5-5.8-14.8-9.7-21.9-8.3c-5.7,1.1-10.7,4.4-16.4,5.7
	c-4.7,1.1-9.4,2-14.1,2.9c-11.3,2-23.3,3.7-34.8,2.4c0,0-2.7,6.5,11.9,11.3c8.5,0.1,20-0.8,28.4-2.4c3.5-0.7,19.7-3.8,20.9-3.2
	c4.6,2.5,2.3,12.3,1.6,16.1c-1.3,6.5-2.8,15.2-8.3,19.6c-4.2,3.4-9.7,4.1-14.8,5.5c-5.3,1.4-10.3,3-15.9,2.8
	C52.3,83.1,45.8,79.6,37.5,75.8z"/>
</svg>
