<?xml version="1.0" encoding="utf-8"?>
<!-- Generator: Adobe Illustrator 23.0.1, SVG Export Plug-In . SVG Version: 6.00 Build 0)  -->
<svg version="1.1" id="Layer_1" xmlns="http://www.w3.org/2000/svg" xmlns:xlink="http://www.w3.org/1999/xlink" x="0px" y="0px"
	 viewBox="0 0 200 200" style="enable-background:new 0 0 200 200;" xml:space="preserve">
<style type="text/css">
	.st0{fill:#49B5DB;}
</style>
<g>
	<path class="st0" d="M149.9,115h30.2c0,0,4.6-2.6,3.1-6.1c0,0-34.3-4.1-49.1-26.1L122.8,70l26.1-14.3c0,0,7.7-1.5,1.5-8.2l-7.7-6.6
		c0,0-3.6-3.1-6.1,5.1c0,0,1,7.2-13.8,18.4l-4.1,1l-11.3-12.8c0,0-0.5-3.2,13.8-12.3c0,0,15.9-4.5,6.6-11.7l-8.7-6.6
		c0,0-6.6-4.1-6.6,7.7c0,0-4.6,15.9-10.7,17.4l-8.7,1c0,0,18.9,18.4,23.5,26.6L149.9,115z"/>
	<path class="st0" d="M101.8,138.5c0,0,19.4,6.6,29.6,17.9c0,0,12.8,9.2,9.7,21c0,0-4.1,6.1-16.9-7.7
		C124.3,169.7,102.3,143.6,101.8,138.5z"/>
	<path class="st0" d="M55,49.8c3.2-0.8,6.3-1.4,9.5-2.1c0.4-0.1,0.9-0.2,1.2-0.4c0.3-0.2,0.6-0.6,0.8-0.9c1.8-2.5,3.6-5.1,5.3-7.6
		c0.1-0.2,0.2-0.3,0.4-0.4c0.2-0.1,0.3-0.1,0.5-0.1c7.1-0.1,14,1.4,18.6,9.7c0,0-10.5,12.8-17.6,32.7c-1.5,4.2-4.3,8.3-6.7,12
		c-5.8,9.4-12.5,18.2-20.1,26.1c-8.2,8.6-16.5,15.8-27.9,19.6c-3.1,1-4.4-1.9,2.9-6c0,0,15.1-8.3,38.7-44.6
		c-1.4-0.4-2.7-0.8-4.1-1.2c-3-0.9-6-1.7-8.1-4.1c-1.3-1.5-2.5-3.1-3.5-4.8c-0.4-0.7-3.1-4.4-2.8-5.1c0.4-0.8,3.7-0.4,4.4-0.4
		c2.6,0.1,5.2,0.5,7.7,1.4c0.8,0.3,8.3,4.6,7.9,4.9c0,0,7.7-5.6,10.2-26.6c0,0-11.9,5.5-12.3,5.6c-1,0.4-4.1-0.9-5-1.2
		c-2-0.7-4.8-3.1-4.9-5.6C50,51,52.5,50.4,55,49.8z"/>
	<path class="st0" d="M68.2,102c0,0,14.6-0.6,25.6-5c0,0,16.2-13.4,20.3-7.4c0,0,5.5,3.4,7.7,7.7c0,0-5.9,3.8-28.6,6
		c0,0-1.9,3.6,2.9,7.7c0,0,1.7,1.2,1.8,11c0,0,3.3,2.8,20.2-5c0,0,15.7-11,21.7,1.7c0,0,4.6,6.5-13.7,6.8c0,0-25.4,2.3-29.5,4.7
		c0,0-2.3,16.7-10,25.7c0,0-13.8,14.4-20.1,17.3c0,0-14.1,3.8-20.7,4.1c0,0-4.1,0.6-2.2-3.6c0,0,14.7-2.4,24.2-11.1
		c0,0,14.1-10.9,17.9-27.9c0,0-3.4-3.3-10.6,0.8c0,0-8.8,3.8-14.3,5c0,0-9.2,1.9-11.9-7.7c0,0-6.3-0.2,36.3-6.5
		c0,0,3.6-5.9-0.4-16.7c0,0-12.7,1.4-16-1.9C68.9,107.5,66.3,103.6,68.2,102z"/>
</g>
</svg>
