<?xml version="1.0" encoding="utf-8"?>
<!-- Generator: Adobe Illustrator 23.0.1, SVG Export Plug-In . SVG Version: 6.00 Build 0)  -->
<svg version="1.1" id="Layer_1" xmlns="http://www.w3.org/2000/svg" xmlns:xlink="http://www.w3.org/1999/xlink" x="0px" y="0px"
	 viewBox="0 0 200 200" style="enable-background:new 0 0 200 200;" xml:space="preserve">
<path d="M90.43,16.35c0,0,19.32,5.47,18.23,9.84c-1.09,4.38-2.46,36.46,0.04,36.46c2.51,0,9.43-1.46,19.28-6.56
	s25.16,6.56,21.15,6.56c0,0,0.46,2.46-5.83,3.55c-6.29,1.09-33.36,4.38-32.54,5.2c0.82,0.82,7.11,36.64,15.31,39.1
	s6.02-28.71,10.66-27.89c4.65,0.82,17.5,7.93,15.04,13.4c-2.46,5.47-17.5,23.79-19.41,23.52c-1.91-0.27,20.23,31.72,23.79,31.99
	c3.55,0.27,9.57,6.29,16.41-12.58c6.84-18.87,5.2,0.55,5.2,0.55s1.91,26.8,4.65,30.08s-8.2,7.93-19.69,0
	c-11.48-7.93-37.74-36.64-38.28-41.29c-0.55-4.65-33.63,31.72-45.39,28.44c1.1-4.7-4.1,5.2,40.47-34.45c0,0-19.14-41.84-19.14-49.49
	c0,0-28.16,8.48-42.38,6.29c0,0,3.83,18.59,0,32.54c0,0,16.95-4.38,23.52-6.02c6.56-1.64,13.67-2.19,17.5,4.92
	c0,0,2.73,3.28-19.96,4.65s-21.06,4.92-21.06,4.92s-16.13,41.02-39.38,45.39c0,0-3.83-2.46,3.28-6.29
	c7.11-3.83,33.09-34.73,24.34-77.38c0,0-11.21-16.13,3.01-8.2c11.22,2.36,49.22-6.56,49.22-6.56l-4.38-28.44
	c0,0-12.03-22.06-8.48-22.24C89.16,16.17,90.43,16.35,90.43,16.35z"/>
<path d="M128.26,29.84c0,0,19.41,17.5,23.24,17.5c3.83,0,10.94,1.64,9.3-7.11C159.16,31.48,140.84,26.29,128.26,29.84z"/>
</svg>
