<?xml version="1.0" encoding="utf-8"?>
<!-- Generator: Adobe Illustrator 23.0.1, SVG Export Plug-In . SVG Version: 6.00 Build 0)  -->
<svg version="1.1" id="Layer_1" xmlns="http://www.w3.org/2000/svg" xmlns:xlink="http://www.w3.org/1999/xlink" x="0px" y="0px"
	 viewBox="0 0 200 200" style="enable-background:new 0 0 200 200;" xml:space="preserve">
<path d="M69,25.35c0,0,6.93,5.73,11.75,5.42s34.06-12.66,44-15.67s24.41,6.33,22.3,11.15s-24.71,3.94-27.12,4.53
	c-2.41,0.59-25.01,3.81-28.03,4.61c-3.01,0.8-17.08,4.42-17.08,4.42s0.8,44.6-3.82,46.61c-4.62,2.01,22.1,3.42,51.64-9.04
	c0,0,16.48-12.05,25.72-4.22c9.24,7.84,10.45,11.85,2.81,11.85c-7.63,0-53.44,6.03-51.23,7.03c2.21,1,19.29,31.95,20.49,31.95
	s16.47-14.67,17.28-17.08c0.8-2.41-0.2-14.26,3.21-15.27c3.42-1,24.91,6.23,16.68,11.85s-31.95,26.12-31.95,26.12
	s26.72,28.53,51.23,34.16s4.22,8.64,2.01,8.64c-2.21,0-25.11,3.62-29.74,1c-4.62-2.61-46.61-61.08-58.87-78.76
	c-1.85-2.67-4.82,0.93-4.82,0.93l-1,62.76c0,0,26.12-17.48,28.93-16.27s-35.36,43.2-39.18,43.4c-3.82,0.2-9.84-13.06-8.64-17.48
	c1.21-4.42,8.24-13.66,10.45-35.56c2.21-21.9,1.41-38.78-3.21-38.37c-4.62,0.4-15.87,48.82-29.53,65.5s-18.89,20.69-21.3,19.49
	c-2.41-1.21,6.03-13.66,9.44-16.47s27.12-56.26,28.93-72.13s1.61-51.03,1.61-51.84C61.97,37.81,55.54,16.51,69,25.35z"/>
<path d="M83.67,54.48c0,0,10.85,4.62,40.79-9.84c9.13-3.72,11.05,10.55,11.05,10.55s-39.98,10.15-42.79,9.95
	C89.89,64.93,78.64,56.89,83.67,54.48z"/>
<path d="M18.77,163.58c0,0,5.63,15.87-7.63,16.48c0,0-0.4-5.63,2.61-6.83S16.36,161.17,18.77,163.58z"/>
</svg>
