<?xml version="1.0" encoding="utf-8"?>
<!-- Generator: Adobe Illustrator 23.0.1, SVG Export Plug-In . SVG Version: 6.00 Build 0)  -->
<svg version="1.1" id="Layer_1" xmlns="http://www.w3.org/2000/svg" xmlns:xlink="http://www.w3.org/1999/xlink" x="0px" y="0px"
	 viewBox="0 0 200 200" style="enable-background:new 0 0 200 200;" xml:space="preserve">
<path d="M80.68,27.65c0,0,23,3.12,22.44,7.1c-0.57,3.98-5.68,2.27-4.54,8.8s0.28,17.04,0.28,17.04s17.89-3.55,21.3-3.41
	s20.87,8.52,13.35,10.37s-32.94,0.99-35.5,2.98c-2.56,1.99-0.28,19.17-0.28,19.17s34.79-7.81,44.16-5.82s19.03,11.08,17.18,11.5
	s-54.95-0.14-58.36,1.14s2.41,6.96,13.06,14.91s54.66,39.9,72.26,37.91c3.79,2.12,2.64,5.96-38.75,6.82
	c-28.97-22.01-49.84-49.13-49.84-49.13l3.05,55.52c0,0,0.35,27.69-12.71,13.49c-1.7-4.54,2.98-70,2.98-70s-33.37,50.12-69.29,53.82
	c0,0-2.84-1.28,5.4-5.4s31.66-17.47,57.65-53.96c0,0-24.85,0.99-28.68,2.27C52,104.04,39.51,116.82,28,98.51
	c-0.28-0.85-0.28-0.85-0.28-0.85l61.48-5.4l0.14-19.17c0,0-8.52,0.14-16.33,1.28s-17.75,1.7-15.62-9.23
	c6.11-2.7,31.95-1.28,31.95-1.28L89.2,42.84C89.2,42.84,78.13,29.21,80.68,27.65z"/>
</svg>
