<?xml version="1.0" encoding="utf-8"?>
<!-- Generator: Adobe Illustrator 23.0.1, SVG Export Plug-In . SVG Version: 6.00 Build 0)  -->
<svg version="1.1" id="Layer_1" xmlns="http://www.w3.org/2000/svg" xmlns:xlink="http://www.w3.org/1999/xlink" x="0px" y="0px"
	 viewBox="0 0 200 200" style="enable-background:new 0 0 200 200;" xml:space="preserve">
<path d="M170.23,106.95c0,0,5.17-9.12-9-12.61c-9.81-2.41-31.01,3.4-31.01,3.4s1.2-31.61,14.81-43.62
	c1.78-2.21-18.41-12.61-18.41-12.61s-35.21,7.47-76.23,6.74c0,0,1.07,13.34,12.81,10.67c11.74-2.67,18.41,0.35,18.41,0.35l-2.4,42.6
	H19.97c0,0,5.6,11.2,12,11.47c6.4,0.27,44.55-3.47,44.55-3.47l-6.14,46.69H34.91c0,0,7.47,12.54,12.81,11.74
	c5.34-0.8,57.09-7.47,83.5-7.74s28.81,5.07,33.08,3.73c4.27-1.33,2.22-8.68-11.12-15.62c-10.66-2.37-29.97,2.55-29.97,2.55
	s0.7-35.3,4.4-42.48C129.34,105.38,170.23,106.95,170.23,106.95z M110.8,154.56c-1.6,0-30.61,0-30.61,0s-2.29-9.11,6.54-45.82
	c0,0,22.05-2.52,30.68-2C121.81,109.75,112.4,154.56,110.8,154.56z M119.81,99.34c0,0-33.01,1.4-34.01,1.4s10.86-31.01,9.76-35.14
	c-1.03-3.89-7.76-9.08-7.76-9.08c30.61-4.6,35.61-3.6,38.02,1.8C128.21,63.73,119.81,99.34,119.81,99.34z"/>
<path d="M172.29,98.41l0.67,13.21l10.8-2.8C183.77,108.81,176.56,98.28,172.29,98.41z"/>
</svg>
