<?xml version="1.0" encoding="utf-8"?>
<!-- Generator: Adobe Illustrator 23.0.1, SVG Export Plug-In . SVG Version: 6.00 Build 0)  -->
<svg version="1.1" id="Layer_1" xmlns="http://www.w3.org/2000/svg" xmlns:xlink="http://www.w3.org/1999/xlink" x="0px" y="0px"
	 viewBox="0 0 200 200" style="enable-background:new 0 0 200 200;" xml:space="preserve">
<path d="M78.64,24.99c0,0,14.59,31.17,26.53,20.56S89.25,21.01,78.64,24.99z"/>
<path d="M146.46,54.17c0,0,2.49,2.98-9.45,16.42s17.91-9.95,27.86-8.21c9.95,1.74,11.94-2.24,3.98-8.21s-15.92-12.93-22.88-11.44
	s-11.94,8.46-94.52,12.93c0,0,1.99-9.85-5.97-7.91S22.59,80.54,27.06,82.03c4.48,1.49,5.47,10.45,23.38-16.42
	C50.45,65.62,143.47,52.68,146.46,54.17z"/>
<path d="M134.02,89C131.7,89,100,94.97,100,94.97s-0.47-7.63,0-10.31s-3.45-0.63-4.78-3.62c-1.33-2.98,32.17-3.32,34.16-3.65
	s-11.94-11.61-11.94-11.61L56.42,77.39c0,0,4.97,9.29,9.95,10.28c4.97,0.99,12.93-8.95,18.57-4.64s2.98,15.26,2.98,15.26
	c-54.06,1.99-44.11,2.32-46.43,3.65s24.87,49.08,24.87,49.08l4.97-4.51l43.78-2.12c0,0,6.3,3.32,9.29,1.66
	c2.98-1.66,26.86-45.1,26.86-45.1S136.34,89,134.02,89z M89,140.74c-1.24,0-19.9,2.49-20.65,0s-12.3-31.95-9.2-32.34L89,104.67
	v12.44l-16.67,2.24c0,0-3.23,7.21,1.74,6.96s13.93-4.23,14.92-2.74C90,125.06,90.24,140.74,89,140.74z M117.54,139.24
	c0,0-19.09-1-19.83-1.49c-0.75-0.5-1.24-14.43,1-14.5s16.17-1.17,18.41-1.92s-4.97-10.2-4.97-10.2l-14.43,4.48v-13.18
	c24.62-1.99,31.34-3.98,33.08,0C132.53,106.41,117.54,139.24,117.54,139.24z"/>
<path d="M71.84,153.42l13.68,11.44c0,0-28.11,22.39-55.72,23.88c0,0-4.23,0.25,25.62-17.66C67.86,161.63,71.84,153.42,71.84,153.42z
	"/>
<path d="M105.33,156.99c0,0,34.66,36.32,42.29,29.68c7.63-6.63-2.32-16.25-2.32-16.25S124.07,146.87,105.33,156.99z"/>
</svg>
