<?xml version="1.0" encoding="utf-8"?>
<!-- Generator: Adobe Illustrator 23.0.1, SVG Export Plug-In . SVG Version: 6.00 Build 0)  -->
<svg version="1.1" id="Layer_1" xmlns="http://www.w3.org/2000/svg" xmlns:xlink="http://www.w3.org/1999/xlink" x="0px" y="0px"
	 viewBox="0 0 200 200" style="enable-background:new 0 0 200 200;" xml:space="preserve">
<g>
	<path d="M34.77,175.21c0,0,27.1-27.99,26.22-59.98c0,0,2.67-35.55-5.33-40.43c0,0,0.44-6.66,11.55-2.67c0,0,12,3.22,21.77-1.28
		c0,0-6.66-43.6-11.55-52.49c0,0-5.78-15.11,16,0c0,0,0,43.54,6.22,49.77l11.55-5.78c0,0,6.22-7.11,14.66-3.55
		c0,0,7.11,6.22,0,10.22c0,0-19.99,7.11-25.33,7.55c0,0,6.22,32.44,13.77,45.32c0,0,11.11-12.89,9.78-36.88c0,0,9.78,4,11.55,10.66
		c0,0-8.44,23.55-17.33,35.55c0,0,12.44,29.77,31.55,39.1c0,0,6.59-21.75,8.42-31.19c0.29-1.52,0.47-2.72,0.47-3.46
		c0,0,3.55,45.32,4,50.65c0,0-5.63,4.74-13.33,0c0,0-20.14-12.74-37.62-45.91c0,0-8.29,13.03-29.33,26.36c0,0-8.59,2.37-7.41-3.26
		c0,0,26.61-19.38,32.29-31.7c0,0-15.4-42.66-16-54.21c0,0-10.96,6.14-21.92,3.55c0,0,2.96,40.88-1.78,54.8
		c0,0-6.22,24.29-22.22,36.73c0,0-7.11,4.15-8,4.15C37.43,176.84,34.47,178.62,34.77,175.21z"/>
	<path d="M115.63,26.36c0,0,10.22,18.22,19.99,19.99c0,0,11.55-3.55,2.22-15.55C137.85,30.8,133.46,28.53,115.63,26.36z"/>
</g>
</svg>
