<?xml version="1.0" encoding="utf-8"?>
<!-- Generator: Adobe Illustrator 23.0.1, SVG Export Plug-In . SVG Version: 6.00 Build 0)  -->
<svg version="1.1" id="Layer_1" xmlns="http://www.w3.org/2000/svg" xmlns:xlink="http://www.w3.org/1999/xlink" x="0px" y="0px"
	 viewBox="0 0 200 200" style="enable-background:new 0 0 200 200;" xml:space="preserve">
<g>
	<path d="M122.78,107.02c3.81-1.86,5.84-6.13,7.18-10.18c6.95-21.15,3.32-45.08,12.59-65.31c0.99-2.16,2.14-4.31,2.44-6.67
		c0.6-4.57-4.46-10.06-7.84-12.68c-1.74-1.35-3.47-2.7-5.2-4.06c-0.3-0.23-0.6-0.47-0.96-0.58c-1.55-0.47-5.4,1.55-6.78,2.22
		l-6.89,3.31l-11.86,3.31l-11.31,2.76l-14.89,2.21L65.73,21.9c0,0-8.24-2.2-8.27-2.21c-1.71-0.45-5.05-2.67-6.92-1.58
		c-2.67,1.56-1.19,7.25,0.58,9.02c0,0,2.48,3.86,4.14,14.34l1.38,10.2l1.93,12.96l1.65,14.34l1.1,10.76l1.93,9.38l1.38,8
		c0,0,2.48,2.48,4.96,0l-0.28-6.89l-0.83-15.17c0,0-1.65-20.13-1.65-20.13c-0.63-11.73-1.49-22.89-3.58-34.46
		c0.72,4,30.07-3.6,33.8-4.56c0,0,10.18-2.48,10.18-2.48s9.78-2.62,9.79-2.62c3.85-0.67,10.17-0.81,12.03,3.31
		c1.07,2.38,0.85,5.12,0.6,7.72c-2.4,25.11-4.79,50.23-7.19,75.34C122.57,107.12,122.68,107.07,122.78,107.02z"/>
	<path d="M91.2,194.53v-63.7c0,0,0-68.67,0-68.67c-0.21-0.38-4.51-0.25-5.02-0.2c-1.87,0.2-3.68,0.92-5.15,2.09
		c-0.25,0.2-0.52,0.42-0.84,0.44c-0.23,0.02-0.45-0.07-0.66-0.17c-3.2-1.43-4.96-3.98-6.95-6.72c-0.26-0.35,0-2.04,0-2.49
		c0.87-0.34,1.62-0.92,2.42-1.38c2.15-1.24,4.98-0.71,7.35-0.67c1.44,0.02,2.88,0.02,4.32-0.01c1.14-0.02,3.59,0.33,4.58-0.2
		c0.95-0.51,0.58-2.76,0.62-3.93V38.58L91.4,32c0,0-2.43-0.03-2.69-1.28s-0.36-3.41,0.83-4.96c0,0,5.99,0,6.62,0
		c0,0,2.22,1.19,2.9,2.84c0.67,1.65-0.07,8.26-0.07,8.26l-0.21,5.31l-0.07,4.69c0,0,0.21,3.72,0.21,3.73
		c4.31,2.53,4.92-3.36,7.3-4.47c0.42-0.2,0.88-0.28,1.33-0.35c1.96-0.34,4.03-0.67,5.9-0.01c3.15,1.11,4.81,4.89,4.23,8.18
		c-0.24,1.37-0.83,2.72-1.89,3.61c-2.88,2.41-5.4,0.08-8.34,0.19c-0.73,0.03-1.52,0.29-2.23,0.43c-1.17,0.22-2.56,0.29-3.68,0.71
		c0,0-3.31,1.24-3.31,1.24l0.83,62.05l-1.65,43.43l-0.83,16.96l0.48,12H91.2z"/>
	<polygon points="68.87,91.25 93.59,87.53 108.77,85.46 125.25,83.81 125.25,91.25 100.96,93.18 85.78,96.22 68.87,99.11 	"/>
</g>
</svg>
