<?xml version="1.0" encoding="utf-8"?>
<!-- Generator: Adobe Illustrator 23.0.1, SVG Export Plug-In . SVG Version: 6.00 Build 0)  -->
<svg version="1.1" id="Layer_1" xmlns="http://www.w3.org/2000/svg" xmlns:xlink="http://www.w3.org/1999/xlink" x="0px" y="0px"
	 viewBox="0 0 200 200" style="enable-background:new 0 0 200 200;" xml:space="preserve">
<path d="M39.95,57c0,0,58.68-6.29,84.36-34.06c0,0,12.05,2.62,20.43,13.62c0,0-31.96,15.19-46.63,15.19c0,0-2.1,2.27,7.86,5.94
	l-2.62,40.17c0,0,28.82-3.14,36.68-5.76c7.86-2.62,24.1-0.52,30.91,11c0,0-61.3-1.05-65.49,4.72c0,0-2.1,3.67-2.62,9.96l0.52,42.44
	c0,0,14.15,1.05,46.63-4.72c0,0,30.39-7.34,36.68,11c0,0,4.19,1.05-4.72,3.14h-80.16c0,0-65.49,7.86-73.88,10.48
	c0,0-29.87-13.62-11-16.77h72.31c0,0,5.24-6.29,1.57-56.59c0,0-34.58,3.67-44.01,7.86c0,0-19.39,1.05-17.29-13.1h58.68h3.14v-37.2
	l-4.19-10.48c0,0-40.34,4.72-43.49,5.76C43.62,59.62,37.34,60.67,39.95,57z"/>
</svg>
