<?xml version="1.0" encoding="utf-8"?>
<!-- Generator: Adobe Illustrator 23.0.1, SVG Export Plug-In . SVG Version: 6.00 Build 0)  -->
<svg version="1.1" id="Layer_1" xmlns="http://www.w3.org/2000/svg" xmlns:xlink="http://www.w3.org/1999/xlink" x="0px" y="0px"
	 viewBox="0 0 200 200" style="enable-background:new 0 0 200 200;" xml:space="preserve">
<g>
	<path d="M43.05,117.63c0,0,19.13,1.44,50.53-3.61c0,0,3.97-6.14,0-19.13l-62.8,7.94c0,0-12.99-3.97-11.55-7.94
		c0,0-2.53-4.69,56.31-4.69l19.81-1.8h5.45c0,0,17.69-19.13,14.8-32.85c0,0,10.11-0.36,18.41,6.86c0,0-14.44,15.88-23.82,22.74
		c0,0,8.66,1.44,41.87-5.78c0,0,22.38-6.67,32.12,7.31c0,0,5.78,3.15-13.35,3.15L106.21,92l-1.8,2.17v2.53l3.25,1.44l-0.72,11.91
		l1.44,2.53c0,0,22.02-2.17,26.71-5.41c0,0,13.72-7.58,23.82,6.5l-2.17,2.53l-48.37,1.63c0,0-2.53,2.7-1.44,10.28l-0.36,29.6
		c0,0-1.1,14.08-4.52,18.05c0,0-6.67,0.72-7.75-10.83l0.72-45.12l-33.57,5.41C61.46,125.21,49.18,128.1,43.05,117.63z"/>
	<path d="M49.91,51.94c0,0,63.53-0.72,79.41-10.83c0,0,16.24-2.53,21.3,7.94c0,0-0.72,1.08-5.78,1.44
		c-5.05,0.36-72.19,5.78-81.93,11.19C62.9,61.69,49.91,56.99,49.91,51.94z"/>
	<path d="M79.86,26.67c0,0,10.83,0.72,12.99,0c2.17-0.72,17.69,5.41,15.52,12.27c0,0-0.88,8.3-14.15,4.33
		C94.23,43.28,81.67,32.09,79.86,26.67z"/>
	<path d="M73.37,64.57h9.38c0,0,12.48,5.05,11.47,13.35c0,0-2.09,7.58-8.22,4.69C86,82.62,76.58,77.93,73.37,64.57z"/>
</g>
</svg>
