<?xml version="1.0" encoding="utf-8"?>
<!-- Generator: Adobe Illustrator 23.0.1, SVG Export Plug-In . SVG Version: 6.00 Build 0)  -->
<svg version="1.1" id="Layer_1" xmlns="http://www.w3.org/2000/svg" xmlns:xlink="http://www.w3.org/1999/xlink" x="0px" y="0px"
	 viewBox="0 0 231.7 231.7" style="enable-background:new 0 0 231.7 231.7;" xml:space="preserve">
<style type="text/css">
	.st0{fill:url(#SVGID_1_);}
	.st1{fill:url(#SVGID_2_);}
	.st2{fill:url(#SVGID_3_);}
	.st3{fill:url(#SVGID_4_);}
</style>
<g>
	<g>
		<linearGradient id="SVGID_1_" gradientUnits="userSpaceOnUse" x1="76.3044" y1="99.4543" x2="165.7855" y2="99.4543">
			<stop  offset="0" style="stop-color:#FF3800"/>
			<stop  offset="1" style="stop-color:#FFCE00"/>
		</linearGradient>
		<path class="st0" d="M165.8,107.6C165.8,107.6,165.8,107.6,165.8,107.6c0.1,28.8-19.7,45.1-46.4,45.1c-22.9,0-34.5-11.5-41-27.8
			c0.1,0-0.8-3.3-0.8-5.8c0.1-12.3,6.2-19.4,14.5-28.1c3.6-3.8,9.9-8.2,11.1-19.4c1.4-13.6-8.6-22.1-9.3-25.5
			c16.4-0.3,28.1,5.4,37.8,16.6c5.2,6.1,8,11.5,17.9,29.6c1.2,2.2,1.5,2.6,1.3,2.2c0.1-0.4,3.7-8.2-1.3-18.4c-1.2-2-2.3-4.2-2.3-4.6
			c0-0.1,0-0.1,0-0.2c-0.2-2.1,1.5-2.4,2.3-2.2c9,5.6,15.4,17.8,16.2,35.7c0,0.4,0.1,0.8,0.1,1.3
			C165.8,106.8,165.8,107.2,165.8,107.6C165.8,107.5,165.8,107.6,165.8,107.6z M98.1,60.5c1.4,2.6,4.1,13.1-1.2,20.9
			c-2.3,3.4-4.1,5.4-8.6,9.4c-8.5,7.6-10.7,15.7-11.4,14.2c-1.2-2.7-1-15.6,2.4-21c2.6-4.3,4.7-6.2,8.5-10.3
			c5.2-5.6,4.7-7.8,6.3-14.5C94.7,56.7,95.8,56,98.1,60.5z"/>
		<g>
			<g>
				<linearGradient id="SVGID_2_" gradientUnits="userSpaceOnUse" x1="116.7135" y1="165.7234" x2="118.1321" y2="52.0349">
					<stop  offset="0.2727" style="stop-color:#FF1700"/>
					<stop  offset="0.3043" style="stop-color:#FF2100"/>
					<stop  offset="0.4622" style="stop-color:#FF4C00"/>
					<stop  offset="0.6149" style="stop-color:#FF6E00"/>
					<stop  offset="0.7591" style="stop-color:#FF8700"/>
					<stop  offset="0.8911" style="stop-color:#FF9600"/>
					<stop  offset="1" style="stop-color:#FF9B00"/>
				</linearGradient>
				<path class="st1" d="M120,151.9c7.3-2,16.5-6.9,23.8-19.4c4-6.8,5.4-14.8,4.6-21.9c-0.8-8.1-5.1-16.3-9.8-22.8
					c-4.9-7.8-11.9-14.1-17.6-21.7c-2.1-2.8-6.4-9.2-6.1-13c-0.3,5.5-3.9,12-7.3,16.3C101.9,76.7,96,83,91.3,91.1
					c-7.5,13.6-7.3,32.9,3.4,45.7C100.9,144.4,107.6,148.6,120,151.9z"/>
			</g>
		</g>
		<g>
			<g>
				<linearGradient id="SVGID_3_" gradientUnits="userSpaceOnUse" x1="117.497" y1="84.1156" x2="118.713" y2="177.9447">
					<stop  offset="1.818180e-02" style="stop-color:#FFCE00"/>
					<stop  offset="0.2667" style="stop-color:#FFB500"/>
					<stop  offset="0.2962" style="stop-color:#FFB000"/>
					<stop  offset="0.78" style="stop-color:#FF5A00"/>
					<stop  offset="1" style="stop-color:#FF3800"/>
				</linearGradient>
				<path class="st2" d="M120.7,151.7c4.8-1.7,8.7-5.7,10.8-9.2c6.8-10.3,5.7-26.2-4.9-34.2c2.4,3.4-0.5,8.6-4,7.7
					c-6.6-1.7-2.1-10.1-1.1-16.1c0.9-5.4-1.5-9.2-4.2-11.8c1.4,7.5-5.7,13-9.6,18.4c-5.9,8.2-9.1,16.3-6.4,26.4
					c2.3,9.1,9.4,16.6,18.6,19.1L120.7,151.7z"/>
			</g>
		</g>
	</g>
	
		<radialGradient id="SVGID_4_" cx="42.189" cy="151377.2813" r="126.5563" gradientTransform="matrix(0.6773 0 0 5.520000e-02 87.8457 -8203.085)" gradientUnits="userSpaceOnUse">
		<stop  offset="0" style="stop-color:#EB6811"/>
		<stop  offset="0.2694" style="stop-color:#F29C64"/>
		<stop  offset="0.5113" style="stop-color:#F8C7A6"/>
		<stop  offset="0.7125" style="stop-color:#FCE5D6"/>
		<stop  offset="0.8655" style="stop-color:#FEF8F4"/>
		<stop  offset="0.9522" style="stop-color:#FFFFFF"/>
	</radialGradient>
	<path class="st3" d="M197.4,152.7c0,5.5-35.2,10-78.7,10c-43.5,0-78.7-4.5-78.7-10c0-5.5,35.2-10,78.7-10
		C162.2,142.7,197.4,147.2,197.4,152.7z"/>
</g>
</svg>
