<?xml version="1.0" encoding="utf-8"?>
<!-- Generator: Adobe Illustrator 23.0.1, SVG Export Plug-In . SVG Version: 6.00 Build 0)  -->
<svg version="1.1" id="Layer_1" xmlns="http://www.w3.org/2000/svg" xmlns:xlink="http://www.w3.org/1999/xlink" x="0px" y="0px"
	 viewBox="0 0 231.7 231.7" style="enable-background:new 0 0 231.7 231.7;" xml:space="preserve">
<style type="text/css">
	.st0{fill:url(#SVGID_1_);}
	.st1{fill:url(#SVGID_2_);}
	.st2{fill:#FFFFFF;}
	.st3{fill:url(#SVGID_3_);}
	.st4{fill:#FFFFFF;fill-opacity:0;}
	.st5{fill:#FCFEFE;fill-opacity:4.761905e-02;}
	.st6{fill:#FAFCFD;fill-opacity:9.523810e-02;}
	.st7{fill:#F7FBFC;fill-opacity:0.1429;}
	.st8{fill:#F5F9FB;fill-opacity:0.1905;}
	.st9{fill:#F2F8FA;fill-opacity:0.2381;}
	.st10{fill:#EFF6F8;fill-opacity:0.2857;}
	.st11{fill:#EDF5F7;fill-opacity:0.3333;}
	.st12{fill:#EAF4F6;fill-opacity:0.381;}
	.st13{fill:#E7F2F5;fill-opacity:0.4286;}
	.st14{fill:#E5F1F4;fill-opacity:0.4762;}
	.st15{fill:#E2EFF3;fill-opacity:0.5238;}
	.st16{fill:#E0EEF2;fill-opacity:0.5714;}
	.st17{fill:#DDECF1;fill-opacity:0.619;}
	.st18{fill:#DAEBF0;fill-opacity:0.6667;}
	.st19{fill:#D8EAEF;fill-opacity:0.7143;}
	.st20{fill:#D5E8ED;fill-opacity:0.7619;}
	.st21{fill:#D2E7EC;fill-opacity:0.8095;}
	.st22{fill:#D0E5EB;fill-opacity:0.8571;}
	.st23{fill:#CDE4EA;fill-opacity:0.9048;}
	.st24{fill:#CBE2E9;fill-opacity:0.9524;}
	.st25{fill:#C8E1E8;}
</style>
<g>
	<g>
		<linearGradient id="SVGID_1_" gradientUnits="userSpaceOnUse" x1="115.2735" y1="136.1246" x2="115.2735" y2="41.8697">
			<stop  offset="0" style="stop-color:#0684CE"/>
			<stop  offset="1" style="stop-color:#AFDFF3"/>
		</linearGradient>
		<path class="st0" d="M139.9,77.9L139.9,77.9c0,0-10.1-11.4-11.6-19.1c-1.6-8.3,0.8-16.9,0.8-16.9s-16.4,6.7-30.4,21.4
			c-9.3,9.8-17.8,26-17.8,38.5c0,19,15.4,34.3,34.3,34.3c19,0,34.3-15.4,34.3-34.3C149.6,92.5,145.9,84.1,139.9,77.9z"/>
		<linearGradient id="SVGID_2_" gradientUnits="userSpaceOnUse" x1="115.2737" y1="134.6837" x2="115.2737" y2="70.4763">
			<stop  offset="0" style="stop-color:#0684CE"/>
			<stop  offset="1" style="stop-color:#AFDFF3"/>
		</linearGradient>
		<path class="st1" d="M115.3,134.7c-17.4,0-31.7-13.6-32.8-30.8c0-0.7-0.1-1.4-0.1-2.1c0-6.4,8-31.3,32.9-31.3
			c21.8,0,32.3,24.1,32.7,27.7c0.1,1.2,0.2,2.4,0.2,3.6C148.2,119.9,133.4,134.7,115.3,134.7z"/>
		<path class="st2" d="M125.8,45.1c0,0-21.1,14.9-20.3,32.3c0.7,16.3,16,27.1,16.6,37.8c0.6,10.4-11.1,19.2-11.1,19.2
			s18.2-2.8,24.2-16.5c6-13.7-13.6-34.3-16-46.7C116.8,58.8,125.8,45.1,125.8,45.1z"/>
		<linearGradient id="SVGID_3_" gradientUnits="userSpaceOnUse" x1="115.1717" y1="105.3463" x2="115.1717" y2="44.3949">
			<stop  offset="0" style="stop-color:#269DD7"/>
			<stop  offset="1" style="stop-color:#FFFFFF"/>
		</linearGradient>
		<path class="st3" d="M131,105.3c-5.7,0-10.4-2-15-4c-4.5-1.9-9.2-4-14.7-4c-1.3,0-2.5,0.1-3.8,0.3c-4.8,0.8-9.8,2.9-15,6.2
			c0-0.7-0.1-1.4-0.1-2.1c0-12.6,8.7-28.4,17.4-37.5c10.4-10.9,22.2-17.4,27.3-19.9c-0.6,3.3-1.3,9-0.2,14.7
			c1.2,6.2,7.4,14.3,10.4,17.9l0,0l1.6,1.9c5.1,5.2,8.3,12.1,9.1,19.3c-4.6,4.1-9.3,6.4-14,7C133,105.3,132,105.3,131,105.3
			C131,105.3,131,105.3,131,105.3z"/>
	</g>
	<g>
		<ellipse class="st4" cx="113.6" cy="150.2" rx="62.5" ry="5.4"/>
		<ellipse class="st5" cx="113.6" cy="150.2" rx="59.8" ry="5.2"/>
		<ellipse class="st6" cx="113.6" cy="150.2" rx="57.1" ry="4.9"/>
		<ellipse class="st7" cx="113.6" cy="150.2" rx="54.3" ry="4.7"/>
		<ellipse class="st8" cx="113.6" cy="150.2" rx="51.6" ry="4.5"/>
		<ellipse class="st9" cx="113.6" cy="150.2" rx="48.9" ry="4.2"/>
		<ellipse class="st10" cx="113.6" cy="150.2" rx="46.2" ry="4"/>
		<ellipse class="st11" cx="113.6" cy="150.2" rx="43.5" ry="3.8"/>
		<ellipse class="st12" cx="113.6" cy="150.2" rx="40.8" ry="3.5"/>
		<ellipse class="st13" cx="113.6" cy="150.2" rx="38.1" ry="3.3"/>
		<ellipse class="st14" cx="113.6" cy="150.2" rx="35.4" ry="3.1"/>
		<ellipse class="st15" cx="113.6" cy="150.2" rx="32.7" ry="2.8"/>
		<ellipse class="st16" cx="113.6" cy="150.2" rx="30" ry="2.6"/>
		<ellipse class="st17" cx="113.6" cy="150.2" rx="27.2" ry="2.4"/>
		<ellipse class="st18" cx="113.6" cy="150.2" rx="24.5" ry="2.1"/>
		<ellipse class="st19" cx="113.6" cy="150.2" rx="21.8" ry="1.9"/>
		<ellipse class="st20" cx="113.6" cy="150.2" rx="19.1" ry="1.7"/>
		<ellipse class="st21" cx="113.6" cy="150.2" rx="16.4" ry="1.4"/>
		<ellipse class="st22" cx="113.6" cy="150.2" rx="13.7" ry="1.2"/>
		<ellipse class="st23" cx="113.6" cy="150.2" rx="11" ry="0.9"/>
		<ellipse class="st24" cx="113.6" cy="150.2" rx="8.3" ry="0.7"/>
		<ellipse class="st25" cx="113.6" cy="150.2" rx="5.6" ry="0.5"/>
	</g>
	<g>
		<ellipse class="st4" cx="113.6" cy="154.3" rx="62.5" ry="5.4"/>
		<ellipse class="st5" cx="113.6" cy="154.3" rx="59.8" ry="5.2"/>
		<ellipse class="st6" cx="113.6" cy="154.3" rx="57.1" ry="4.9"/>
		<ellipse class="st7" cx="113.6" cy="154.3" rx="54.3" ry="4.7"/>
		<ellipse class="st8" cx="113.6" cy="154.3" rx="51.6" ry="4.5"/>
		<ellipse class="st9" cx="113.6" cy="154.3" rx="48.9" ry="4.2"/>
		<ellipse class="st10" cx="113.6" cy="154.3" rx="46.2" ry="4"/>
		<ellipse class="st11" cx="113.6" cy="154.3" rx="43.5" ry="3.8"/>
		<ellipse class="st12" cx="113.6" cy="154.3" rx="40.8" ry="3.5"/>
		<ellipse class="st13" cx="113.6" cy="154.3" rx="38.1" ry="3.3"/>
		<ellipse class="st14" cx="113.6" cy="154.3" rx="35.4" ry="3.1"/>
		<ellipse class="st15" cx="113.6" cy="154.3" rx="32.7" ry="2.8"/>
		<ellipse class="st16" cx="113.6" cy="154.3" rx="30" ry="2.6"/>
		<ellipse class="st17" cx="113.6" cy="154.3" rx="27.2" ry="2.4"/>
		<ellipse class="st18" cx="113.6" cy="154.3" rx="24.5" ry="2.1"/>
		<ellipse class="st19" cx="113.6" cy="154.3" rx="21.8" ry="1.9"/>
		<ellipse class="st20" cx="113.6" cy="154.3" rx="19.1" ry="1.7"/>
		<ellipse class="st21" cx="113.6" cy="154.3" rx="16.4" ry="1.4"/>
		<ellipse class="st22" cx="113.6" cy="154.3" rx="13.7" ry="1.2"/>
		<ellipse class="st23" cx="113.6" cy="154.3" rx="11" ry="0.9"/>
		<ellipse class="st24" cx="113.6" cy="154.3" rx="8.3" ry="0.7"/>
		<ellipse class="st25" cx="113.6" cy="154.3" rx="5.6" ry="0.5"/>
	</g>
</g>
</svg>
