<?xml version="1.0" encoding="utf-8"?>
<!-- Generator: Adobe Illustrator 23.0.1, SVG Export Plug-In . SVG Version: 6.00 Build 0)  -->
<svg version="1.1" id="Layer_1" xmlns="http://www.w3.org/2000/svg" xmlns:xlink="http://www.w3.org/1999/xlink" x="0px" y="0px"
	 viewBox="0 0 200 200" style="enable-background:new 0 0 200 200;" xml:space="preserve">
<path d="M75.21,40.9c0,0,23.92,5.27,19.87,10.14s-14.6,16.21-14.6,16.21s10.14,4.86,27.57,0s26.35-13.78,38.51-3.24
	c12.16,10.54-12.97,5.41-12.97,5.41l-27.16,3.51c0,0,7.32,2.86,4.05,6.89c-2.87,3.54-3.51,6.88-3.77,9.82
	c-0.3,3.36,0.63,6.55,0.63,6.55l42.55-3.4c0,0,15.33-4.05,21-1.62s15.81,10.54,3.24,8.92c-12.57-1.62-67.3,0.21-67.3,0.21l1.22,45.6
	c0,0-6.08,24.73-11.35,6.49l1.42-50.07l-49.46,3.85c0,0-21.08,4.08-24.32-6.17l73.58-3.76L97.5,83.06c0,0,1.42-8.31-7.3-9.32
	s-15.6-1.02-15.6-1.02S57.17,91.17,45.61,88.54c0,0,17.99-10.49,28.11-27.91S75.21,40.9,75.21,40.9z"/>
</svg>
