<?xml version="1.0" encoding="utf-8"?>
<!-- Generator: Adobe Illustrator 23.0.1, SVG Export Plug-In . SVG Version: 6.00 Build 0)  -->
<svg version="1.1" id="Layer_1" xmlns="http://www.w3.org/2000/svg" xmlns:xlink="http://www.w3.org/1999/xlink" x="0px" y="0px"
	 viewBox="0 0 200 200" style="enable-background:new 0 0 200 200;" xml:space="preserve">
<style type="text/css">
	.st0{fill:#020202;}
</style>
<path class="st0" d="M180.12,57.89c-24.34-14.52-26.11-10.99-26.11-10.99l-46.71,7.07V33.35c5.5-2.75,5.5-6.87,5.5-6.87
	c-28.46-13.84-30.28-8.69-30.72-8.39c-0.44,0.29,12.66,18.25,12.66,18.25l-0.29,19.28c0,0-28.12,3.97-47.84,2.8
	c-21.35-6.33-16.19,7.36-16.19,7.36c13.69,18.84,20.46,55.5,24.14,58.74c3.68,3.24,7.07-7.51,7.07-7.51l33.12-1.32v49.9
	c4.86,14.13,10.75-1.18,10.75-1.18l1.82-51.77l30.42,0.2c0,0-0.39,4.12,6.13,8.24c6.52,4.12,11.34-5.89,12.91-11.38
	c1.57-5.5,12.37-35.92,18.84-43.38C182.08,58.87,180.12,57.89,180.12,57.89z M96.65,106.13c0,0-25.17,7.07-35.92,3.39
	c-17.22-34.45-17.22-42.4-12.66-42.54l47.84-3.53v17.22H65.44c0,0,0.29,10.6,6.55,10.16c6.26-0.44,19.65-3.83,23.19-3.24
	C98.71,88.17,96.65,106.13,96.65,106.13z M156.27,64.32c-1.33,8.54-6.48,32.98-7.8,33.56c-1.32,0.59,0.29,8.54-11.48,6.77
	s-30.03-0.88-30.03-0.88l0.66-18.4l33.2-2.06c0,0,1.33-0.06-1.32-2.53c-2.65-2.47-8.12-7.6-13.32-6.3
	c-1.92,0.48-16.86,4.42-18.62,3.97c-1.77-0.44,0.15-16.49,0.15-16.49s40.34-5.3,41.51-5.3S157.6,55.78,156.27,64.32z"/>
</svg>
