<?xml version="1.0" encoding="utf-8"?>
<!-- Generator: Adobe Illustrator 23.0.1, SVG Export Plug-In . SVG Version: 6.00 Build 0)  -->
<svg version="1.1" id="Layer_1" xmlns="http://www.w3.org/2000/svg" xmlns:xlink="http://www.w3.org/1999/xlink" x="0px" y="0px"
	 viewBox="0 0 200 200" style="enable-background:new 0 0 200 200;" xml:space="preserve">
<path d="M95.1,38.53c0,0,7.59,12.08,13.46,8.97c5.87-3.11,1.04-14.84,0-17.6c-1.04-2.76-6.9-6.21-13.46-7.94
	c-6.56-1.73-13.92,0.88-5.18,11.04S95.1,38.53,95.1,38.53z"/>
<path d="M55.76,61.82c0,0,60.83-5.1,87.23-13.81c18.38-7.15,27.95,15.62,22.52,13.81c-5.44-1.81-65.34,3.62-66.84,3.88
	c-1.5,0.26,7.56,8.02,4.2,8.8c-3.36,0.78-28.73,31.58-28.73,31.58l23.04,1.29c0,0,17.86-20.71,17.08-24.33
	c-0.78-3.62-1.81-13.2,5.44-9.58c7.25,3.62,12.42,13.2,7.77,16.05c-4.66,2.85-52.03,76.61-86.97,76.61c0,0-3.11-3.11,11.13-10.61
	S91.74,118.77,92,115.14c0.26-3.62-19.93,2.33-27.44,5.44c-7.51,3.11-11.13-11.91-7.25-12.94c3.88-1.04,17.08-13.72,22.26-21.48
	c5.18-7.77,11.41-14.24,6.35-19.15s-27.32,8.8-31.97,7.51c-4.66-1.29-16.82,5.44-20.97-12.42C32.6,57.87,55.76,61.82,55.76,61.82z"
	/>
<path d="M125.39,102.98c0,0,13.98,12.94,11.91,16.05c-2.07,3.11-2.33,2.59-20.97,27.44c0,0,14.75,5.44,27.95,21.48
	c7.77,11.13-3.11,22.26-8.8,12.94c-5.69-9.32-21.48-29.77-22.26-29.77c-0.78,0-30.8,35.72-56.94,35.46c0,0-3.11-2.85,3.88-5.44
	c6.99-2.59,35.99-21.22,51.26-46.59S125.39,102.98,125.39,102.98z"/>
</svg>
