<?xml version="1.0" encoding="utf-8"?>
<!-- Generator: Adobe Illustrator 23.0.1, SVG Export Plug-In . SVG Version: 6.00 Build 0)  -->
<svg version="1.1" id="Layer_1" xmlns="http://www.w3.org/2000/svg" xmlns:xlink="http://www.w3.org/1999/xlink" x="0px" y="0px"
	 viewBox="0 0 200 200" style="enable-background:new 0 0 200 200;" xml:space="preserve">
<path d="M81.9,23.37c0,0,16.07,7.2,12.74,11.91s-33.8,21.88-33.8,21.88s1.11,43.22,0,43.49c-1.11,0.28,22.72-13.57,22.72-14.96
	s3.88-19.39-2.22-22.16c-6.09-2.77-3.6-14.96,7.76-6.37c0,0,3.32-0.83,4.16,13.57c0.83,14.41,2.22,57.07-18.01,73.96
	s-21.61,24.1-32.13,21.33c0,0,23.27-14.26,36.84-44.88c8.86-27.43,0.83-28.81-3.6-22.72s-16.62,21.61-21.33,21.61
	s-8.86-14.13-6.65-16.07c2.22-1.94,5.54-8.56,5.82-8.99s-1.66-30.35-1.66-30.35s-8.86-14.41-8.03-15.51
	c0.83-1.11,8.31-2.49,8.31-2.49l3.05,4.99c0,0,21.88-14.13,23.55-20.5S76.91,24.2,81.9,23.37z"/>
<path d="M121.24,54.12c0,0,20.22-7.2,23.55,0s4.99,44.88-3.88,44.6c-8.86-0.28-12.19-9.67-12.47-3.73s9.14,25.61,12.74,24.78
	s18.01-21.61,15.79-29.09s-1.39-27.15,1.66-30.47s3.05-7.76,0-11.91S147,36.94,143.95,38.6s-8.86,8.03-13.57,8.03
	c-4.71,0-18.28,1.66-23.82-2.22s0,11.36,1.39,11.36s2.49,115.52,2.49,115.52s5.26,15.24,9.42,3.88
	C124.01,163.82,121.24,54.12,121.24,54.12z"/>
</svg>
