<?xml version="1.0" encoding="utf-8"?>
<!-- Generator: Adobe Illustrator 23.0.1, SVG Export Plug-In . SVG Version: 6.00 Build 0)  -->
<svg version="1.1" id="Layer_1" xmlns="http://www.w3.org/2000/svg" xmlns:xlink="http://www.w3.org/1999/xlink" x="0px" y="0px"
	 viewBox="0 0 200 200" style="enable-background:new 0 0 200 200;" xml:space="preserve">
<path d="M47.19,34.12c0,0,9.35,1.12,10.29,1.12c0.94,0,19.45-1.12,19.45-1.12l37.21-8.04c0,0,9.72-6.92,20.57,1.31
	s16.83,12.16,7.48,15.15c-9.35,2.99-34.97,24.31-34.97,24.31l0.94,15.52c0,0,30.77-1.5,38.67-4.11s22.3-8.42,32.58-0.75
	s15.33,12.34,3.93,11.78s-19.64-1.68-25.99-1.87c-6.36-0.19-45.63,3.37-45.63,3.37l1.68,58.91c0,0-2.99,20.2-17.77,21.32
	l-36.47-23.19c0,0,0.56-2.43,10.1,0.37c9.54,2.81,24.87,8.79,30.67-4.11s0.37-51.8,0.37-51.8l-62.46,6.36c0,0-18.7,8.42-27.68-8.23
	l46.75-2.24c0,0,40.02-3.74,41.89-3.18c1.87,0.56-2.43-13.46-14.4-15.52c-3.93-2.79,5.95-11.97,15.6-2.24l19-22.11
	c0,0,6.87-8.84-0.56-12.62S68.23,42.3,68.23,42.3S46.21,53.42,47.19,34.12z"/>
</svg>
