<?xml version="1.0" encoding="utf-8"?>
<!-- Generator: Adobe Illustrator 23.0.1, SVG Export Plug-In . SVG Version: 6.00 Build 0)  -->
<svg version="1.1" id="Layer_1" xmlns="http://www.w3.org/2000/svg" xmlns:xlink="http://www.w3.org/1999/xlink" x="0px" y="0px"
	 viewBox="0 0 200 200" style="enable-background:new 0 0 200 200;" xml:space="preserve">
<path d="M142.68,14.24c-2.44,0.27-22.48,9.21-37.64,10.83c-15.16,1.62-64.18,4.87-64.18,4.87s2.71,10.29,5.69,10.29
	s30.6-3.79,30.6-3.79s7.31,20.31,4.87,27.89c0,0-13.27,1.9-15.44,1.9S59.54,60,56.56,61.9c-2.98,1.9,1.08,8.12,1.9,12.19
	c0.81,4.06-0.27,78.26-0.54,80.97c-0.27,2.71,0.77,20.31,3.77,20.58s2.46-14.89,4.35-15.44c1.9-0.54,50.37-7.58,53.62-6.5
	s6.5,27.62,12.73,27.35c6.23-0.27,6.77-10.02,7.04-13c0.27-2.98,0-95.32,0-95.32s6.23-3.79,4.87-6.5
	c-1.35-2.71-12.46-14.62-14.89-14.62c-2.44,0-3.79,5.96-18.96,7.58c0,0,1.35-21.66-0.54-24.37c-1.9-2.71,17.33-5.69,22.75-4.87
	c5.42,0.81,22.75,5.41,23.02-0.14C155.95,24.26,145.12,13.97,142.68,14.24z M103.96,34.55c1.9,0.27,0,25.18,0,25.18h-13.5
	c0,0-0.58-14.89-0.04-17.87s-4.87-6.23-4.87-6.23S102.06,34.28,103.96,34.55z M111.27,67.45c0,0,16.86-6.3,18.69,0
	s1.83,81.44,1.83,81.44s0.2,6.3-4.67,3.66c-4.87-2.64-3.45-9.34-8.53-8.94c-5.08,0.41-46.31,8.33-46.31,8.33s-7.92,2.64-6.5-4.27
	s1.42-74.74,1.42-74.74l15.5-1.42c0,0,5.28,25.32-11.64,43.6c0,0-1.9,5.69,4.87,0.41c6.77-5.28,14.08-24.51,14.35-33.31
	s0-13.13,0-13.13l13.27-0.41c0,0-3.6,27.62,1.25,30.47c4.84,2.84,20.08,6.7,21.5,0s-2.84-14.22-15.44-6.09
	C110.86,93.04,107.82,90.2,111.27,67.45z"/>
<path d="M109.78,114.57c-1.08-0.14-14.08,4.74-17.87,6.77s-15.03,1.49-15.03,1.49c2.04,6.5,8.67,7.72,8.67,7.72s6.36-1.9,10.29-3.39
	c3.93-1.49,15.98-3.66,20.18-4.27C120.21,122.29,110.86,114.71,109.78,114.57z"/>
</svg>
